<svg id="Component_11_1" data-name="Component 11 – 1" xmlns="http://www.w3.org/2000/svg" width="278" height="280" viewBox="0 0 278 280">
  <g id="Ellipse_8" data-name="Ellipse 8" fill="#fff" stroke="#0492c2" stroke-width="30">
    <ellipse cx="139" cy="140" rx="139" ry="140" stroke="none"/>
    <ellipse cx="139" cy="140" rx="124" ry="125" fill="none"/>
  </g>
  <path id="Path_23" data-name="Path 23" d="M47.8,167.74a62.426,62.426,0,0,1-22.972-3.929A41.685,41.685,0,0,1,8.245,152.243a44.327,44.327,0,0,1-9.331-18.88L22.486,123q2.947,10.149,9.713,15.387a26.109,26.109,0,0,0,16.479,5.238q11.131,0,17.243-4.856t6.111-13.587v-6.984a15.214,15.214,0,0,0-3.383-10.2,22.892,22.892,0,0,0-8.621-6.22,140.5,140.5,0,0,0-13.86-4.856,1.948,1.948,0,0,0-.491-.164,1.948,1.948,0,0,1-.491-.164l-1.2-.327a140.479,140.479,0,0,1-21.335-7.8A36.024,36.024,0,0,1,8.572,75.906Q2.734,67.34,2.734,52.825V48.46q0-13.532,5.62-23.136A35.732,35.732,0,0,1,24.778,10.755Q35.582,5.79,50.86,5.79A51.807,51.807,0,0,1,71.213,9.555,37.6,37.6,0,0,1,86.055,20.686a47.855,47.855,0,0,1,8.785,18.17L72.25,49.333Q69.3,39.839,63.574,34.819A19.8,19.8,0,0,0,50.1,29.8q-10.8,0-16.642,4.583T27.615,47.369v5.238q0,6.548,3.492,10.586a24.039,24.039,0,0,0,8.785,6.33,132.119,132.119,0,0,0,14.569,5.02q.546.218,1.091.382t1.2.382q.437.109.928.273a8.624,8.624,0,0,0,1.037.273,119.86,119.86,0,0,1,19.7,7.8,34.7,34.7,0,0,1,13.1,12.332q5.293,8.239,5.293,22.1v6.984q0,13.532-5.729,23.081A36.607,36.607,0,0,1,74.323,162.72Q63.3,167.74,47.8,167.74Z" transform="translate(91.141 53.235)" fill="#0492c2" style="mix-blend-mode: darken;isolation: isolate"/>
</svg>
